<svg xmlns="http://www.w3.org/2000/svg" viewBox="0 0 1920 1080" width="100%" height="100%">
  <defs>
    <linearGradient id="bg-grad-c-09" x1="0" y1="0" x2="1" y2="1">
      <stop offset="0%" stop-color="#0a0a0a"/><stop offset="50%" stop-color="#171717"/><stop offset="100%" stop-color="#262626"/>
    </linearGradient>
    <filter id="glow-c-09">
      <feGaussianBlur stdDeviation="15" result="coloredBlur"/>
      <feMerge>
        <feMergeNode in="coloredBlur"/>
        <feMergeNode in="SourceGraphic"/>
      </feMerge>
    </filter>
  </defs>

  <!-- Canvas Background -->
  <rect width="1920" height="1080" fill="url(#bg-grad-c-09)"/>

  <!-- Scene Specific Artwork Motifs -->
  
            <!-- Sinuous Art Nouveau Tree & Golden Lake -->
            <circle cx="960" cy="400" r="320" fill="none" stroke="#d4af37" stroke-width="8"/>
            <circle cx="960" cy="400" r="280" fill="none" stroke="#d4af37" stroke-width="3" stroke-dasharray="12,6"/>
            <!-- Graceful Tree -->
            <path d="M 220,700 Q 360,560 400,380" stroke="#d4af37" stroke-width="20" stroke-linecap="round" fill="none"/>
            <path d="M 400,380 Q 480,260 620,240 M 400,380 Q 320,240 240,260 M 400,380 Q 440,200 500,120" stroke="#d4af37" stroke-width="10" stroke-linecap="round" fill="none"/>
            <!-- Stylized Lake & Distant Peaks -->
            <polygon points="0,580 1920,580 1920,1080 0,1080" fill="#0d1b2a" opacity="0.9"/>
            

  <!-- Stylized Overlay Grid & Texture -->
  <rect width="1920" height="1080" fill="none" stroke="rgba(255,255,255,0.06)" stroke-width="2"/>

  <!-- Master Info Card Banner (Bottom Glass Box) -->
  <g transform="translate(60, 880)">
    <rect width="1800" height="140" rx="24" fill="rgba(10, 15, 30, 0.85)" stroke="rgba(255, 255, 255, 0.12)" stroke-width="2"/>
    
    <!-- Number Badge -->
    <rect x="30" y="30" width="80" height="80" rx="16" fill="#f59e0b" opacity="0.2"/>
    <rect x="30" y="30" width="80" height="80" rx="16" fill="none" stroke="#f59e0b" stroke-width="3"/>
    <text x="70" y="80" font-family="'JetBrains Mono', monospace" font-size="34" font-weight="900" fill="#f59e0b" text-anchor="middle">
      09
    </text>

    <!-- Style Names -->
    <text x="140" y="66" font-family="'Noto Serif SC', serif" font-size="32" font-weight="bold" fill="#ffffff">
      装饰风艺术
    </text>
    <text x="140" y="100" font-family="'Plus Jakarta Sans', sans-serif" font-size="20" font-weight="500" fill="#f59e0b">
      Art Deco Luxury · 场景 C · 悬崖古树与镜湖
    </text>

    <!-- Category & Tags on Right -->
    <g transform="translate(1300, 48)">
      <rect x="0" y="0" width="140" height="42" rx="10" fill="rgba(99, 102, 241, 0.2)" stroke="rgba(99, 102, 241, 0.4)"/>
      <text x="70" y="27" font-family="'Plus Jakarta Sans', sans-serif" font-size="16" font-weight="bold" fill="#a5b4fc" text-anchor="middle">
        时代美学
      </text>
      <text x="180" y="27" font-family="'Plus Jakarta Sans', sans-serif" font-size="16" fill="#94a3b8">
        几何放射 · 盖茨比黑金 · 流线型工业
      </text>
    </g>
  </g>
</svg>