<svg xmlns="http://www.w3.org/2000/svg" viewBox="0 0 1920 1080" width="100%" height="100%">
  <defs>
    <linearGradient id="bg-grad-b-11" x1="0" y1="0" x2="1" y2="1">
      <stop offset="0%" stop-color="#022b3a"/><stop offset="50%" stop-color="#1f7a8c"/><stop offset="100%" stop-color="#bfdbf7"/>
    </linearGradient>
    <filter id="glow-b-11">
      <feGaussianBlur stdDeviation="15" result="coloredBlur"/>
      <feMerge>
        <feMergeNode in="coloredBlur"/>
        <feMergeNode in="SourceGraphic"/>
      </feMerge>
    </filter>
  </defs>

  <!-- Canvas Background -->
  <rect width="1920" height="1080" fill="url(#bg-grad-b-11)"/>

  <!-- Scene Specific Artwork Motifs -->
  
            <!-- Studio Ghibli Summer Sea & Fluffy Clouds -->
            <circle cx="1400" cy="300" r="180" fill="#ffffff" opacity="0.9"/>
            <circle cx="1250" cy="350" r="140" fill="#ffffff" opacity="0.95"/>
            <circle cx="1550" cy="360" r="150" fill="#ffffff" opacity="0.9"/>
            <!-- Coastline & Road -->
            <polygon points="0,580 1920,520 1920,1080 0,1080" fill="#2d6a4f"/>
            <polygon points="0,680 1920,620 1920,1080 0,1080" fill="#40916c"/>
            <!-- Yellow Seaside Tram -->
            <rect x="800" y="520" width="340" height="180" rx="16" fill="#f4a261" stroke="#264653" stroke-width="10"/>
            <rect x="830" y="550" width="80" height="60" rx="6" fill="#a8dadc" stroke="#264653" stroke-width="6"/>
            <rect x="930" y="550" width="80" height="60" rx="6" fill="#a8dadc" stroke="#264653" stroke-width="6"/>
            <rect x="1030" y="550" width="80" height="60" rx="6" fill="#a8dadc" stroke="#264653" stroke-width="6"/>
            

  <!-- Stylized Overlay Grid & Texture -->
  <rect width="1920" height="1080" fill="none" stroke="rgba(255,255,255,0.06)" stroke-width="2"/>

  <!-- Master Info Card Banner (Bottom Glass Box) -->
  <g transform="translate(60, 880)">
    <rect width="1800" height="140" rx="24" fill="rgba(10, 15, 30, 0.85)" stroke="rgba(255, 255, 255, 0.12)" stroke-width="2"/>
    
    <!-- Number Badge -->
    <rect x="30" y="30" width="80" height="80" rx="16" fill="#80ed99" opacity="0.2"/>
    <rect x="30" y="30" width="80" height="80" rx="16" fill="none" stroke="#80ed99" stroke-width="3"/>
    <text x="70" y="80" font-family="'JetBrains Mono', monospace" font-size="34" font-weight="900" fill="#80ed99" text-anchor="middle">
      11
    </text>

    <!-- Style Names -->
    <text x="140" y="66" font-family="'Noto Serif SC', serif" font-size="32" font-weight="bold" fill="#ffffff">
      吉卜力 / 赛璐珞
    </text>
    <text x="140" y="100" font-family="'Plus Jakarta Sans', sans-serif" font-size="20" font-weight="500" fill="#80ed99">
      Studio Ghibli / Anime Cel · 场景 B · 雨后黄昏海滨电车
    </text>

    <!-- Category & Tags on Right -->
    <g transform="translate(1300, 48)">
      <rect x="0" y="0" width="140" height="42" rx="10" fill="rgba(99, 102, 241, 0.2)" stroke="rgba(99, 102, 241, 0.4)"/>
      <text x="70" y="27" font-family="'Plus Jakarta Sans', sans-serif" font-size="16" font-weight="bold" fill="#a5b4fc" text-anchor="middle">
        现代数码
      </text>
      <text x="180" y="27" font-family="'Plus Jakarta Sans', sans-serif" font-size="16" fill="#94a3b8">
        水粉手绘 · 蓬松夏云 · 治愈暖调
      </text>
    </g>
  </g>
</svg>