<svg xmlns="http://www.w3.org/2000/svg" viewBox="0 0 1920 1080" width="100%" height="100%">
  <defs>
    <linearGradient id="bg-grad-c-14" x1="0" y1="0" x2="1" y2="1">
      <stop offset="0%" stop-color="#283618"/><stop offset="50%" stop-color="#606c38"/><stop offset="100%" stop-color="#dda15e"/>
    </linearGradient>
    <filter id="glow-c-14">
      <feGaussianBlur stdDeviation="15" result="coloredBlur"/>
      <feMerge>
        <feMergeNode in="coloredBlur"/>
        <feMergeNode in="SourceGraphic"/>
      </feMerge>
    </filter>
  </defs>

  <!-- Canvas Background -->
  <rect width="1920" height="1080" fill="url(#bg-grad-c-14)"/>

  <!-- Scene Specific Artwork Motifs -->
  
            <!-- Mountain Range in Background -->
            <polygon points="1200,220 860,620 1540,620" fill="#1e293b" opacity="0.6"/>
            <polygon points="1500,300 1260,620 1740,620" fill="#334155" opacity="0.5"/>
            <!-- Cliff Left -->
            <polygon points="0,420 540,520 440,1080 0,1080" fill="#0f172a"/>
            <!-- Ancient Blossoming Tree -->
            <path d="M 220,680 Q 340,540 380,360" stroke="#475569" stroke-width="28" stroke-linecap="round" fill="none"/>
            <circle cx="380" cy="300" r="160" fill="#bc6c25" opacity="0.8"/>
            <circle cx="480" cy="340" r="110" fill="#bc6c25" opacity="0.6"/>
            <!-- Reflective Lake -->
            <polygon points="440,620 1920,620 1920,1080 440,1080" fill="#dda15e" opacity="0.75"/>
            

  <!-- Stylized Overlay Grid & Texture -->
  <rect width="1920" height="1080" fill="none" stroke="rgba(255,255,255,0.06)" stroke-width="2"/>

  <!-- Master Info Card Banner (Bottom Glass Box) -->
  <g transform="translate(60, 880)">
    <rect width="1800" height="140" rx="24" fill="rgba(10, 15, 30, 0.85)" stroke="rgba(255, 255, 255, 0.12)" stroke-width="2"/>
    
    <!-- Number Badge -->
    <rect x="30" y="30" width="80" height="80" rx="16" fill="#bc6c25" opacity="0.2"/>
    <rect x="30" y="30" width="80" height="80" rx="16" fill="none" stroke="#bc6c25" stroke-width="3"/>
    <text x="70" y="80" font-family="'JetBrains Mono', monospace" font-size="34" font-weight="900" fill="#bc6c25" text-anchor="middle">
      14
    </text>

    <!-- Style Names -->
    <text x="140" y="66" font-family="'Noto Serif SC', serif" font-size="32" font-weight="bold" fill="#ffffff">
      绘本蜡笔与拼贴
    </text>
    <text x="140" y="100" font-family="'Plus Jakarta Sans', sans-serif" font-size="20" font-weight="500" fill="#bc6c25">
      Picture Book Crayon Collage · 场景 C · 悬崖古树与镜湖
    </text>

    <!-- Category & Tags on Right -->
    <g transform="translate(1300, 48)">
      <rect x="0" y="0" width="140" height="42" rx="10" fill="rgba(99, 102, 241, 0.2)" stroke="rgba(99, 102, 241, 0.4)"/>
      <text x="70" y="27" font-family="'Plus Jakarta Sans', sans-serif" font-size="16" font-weight="bold" fill="#a5b4fc" text-anchor="middle">
        传统画种
      </text>
      <text x="180" y="27" font-family="'Plus Jakarta Sans', sans-serif" font-size="16" fill="#94a3b8">
        蜡笔笔触 · 剪纸拼贴 · 质朴童趣
      </text>
    </g>
  </g>
</svg>